<svg xmlns="http://www.w3.org/2000/svg" viewBox="0 0 512 512" shape-rendering="crispEdges">
  <rect width="512" height="512" rx="96" fill="#05080F"/>

  <g fill="#3BD4F8">
    <!-- Chele sx -->
    <rect x="32" y="64" width="64" height="32"/>
    <rect x="32" y="96" width="32" height="32"/>
    <rect x="96" y="96" width="32" height="32"/>
    <rect x="64" y="128" width="64" height="32"/>
    <!-- Chele dx -->
    <rect x="416" y="64" width="64" height="32"/>
    <rect x="448" y="96" width="32" height="32"/>
    <rect x="384" y="96" width="32" height="32"/>
    <rect x="384" y="128" width="64" height="32"/>

    <!-- Carapace -->
    <rect x="128" y="160" width="256" height="32"/>
    <rect x="64" y="192" width="384" height="128"/>
    <rect x="96" y="320" width="320" height="32"/>
    <rect x="160" y="352" width="192" height="32"/>

    <!-- Zampe sx -->
    <rect x="64" y="352" width="32" height="32"/>
    <rect x="32" y="384" width="32" height="32"/>
    <rect x="128" y="384" width="32" height="32"/>
    <rect x="96" y="416" width="32" height="32"/>
    <rect x="192" y="384" width="32" height="32"/>
    <rect x="160" y="416" width="32" height="32"/>
    <!-- Zampe dx -->
    <rect x="416" y="352" width="32" height="32"/>
    <rect x="448" y="384" width="32" height="32"/>
    <rect x="352" y="384" width="32" height="32"/>
    <rect x="384" y="416" width="32" height="32"/>
    <rect x="288" y="384" width="32" height="32"/>
    <rect x="320" y="416" width="32" height="32"/>
  </g>

  <!-- Occhi grandi -->
  <rect x="112" y="208" width="120" height="96" fill="#FFFFFF"/>
  <rect x="280" y="208" width="120" height="96" fill="#FFFFFF"/>

  <!-- Dollari grandi (cell=12) -->
  <g fill="#05080F">
    <rect x="166" y="214" width="12" height="12"/>
    <rect x="154" y="226" width="36" height="12"/>
    <rect x="142" y="238" width="12" height="12"/>
    <rect x="166" y="238" width="12" height="12"/>
    <rect x="154" y="250" width="36" height="12"/>
    <rect x="166" y="262" width="12" height="12"/>
    <rect x="190" y="262" width="12" height="12"/>
    <rect x="154" y="274" width="36" height="12"/>
    <rect x="166" y="286" width="12" height="12"/>

    <rect x="334" y="214" width="12" height="12"/>
    <rect x="322" y="226" width="36" height="12"/>
    <rect x="310" y="238" width="12" height="12"/>
    <rect x="334" y="238" width="12" height="12"/>
    <rect x="322" y="250" width="36" height="12"/>
    <rect x="334" y="262" width="12" height="12"/>
    <rect x="358" y="262" width="12" height="12"/>
    <rect x="322" y="274" width="36" height="12"/>
    <rect x="334" y="286" width="12" height="12"/>
  </g>
</svg>
